<svg width="400" height="516" viewBox="0 0 400 516" fill="none" xmlns="http://www.w3.org/2000/svg">
<path d="M250 516L250 398H400L250 516Z" fill="#192942"/>
<path d="M399 131L200 0L0 131L0.000311255 205.846C90.7754 282.751 200.952 324.195 314.104 323.999C342.879 324.008 371.606 321.346 400 316.039L399 131Z" fill="#E41429"/>
<path d="M314.104 350.679C200.96 350.894 90.784 310.318 0 235V438H400V342.88C371.606 348.079 342.878 350.687 314.104 350.679Z" fill="#192942"/>
<g opacity="0.94">
<path d="M171.046 206.131C154.068 180.732 158.864 145.976 181.746 128.499C191.572 120.913 203.991 117.503 216.314 119.007C207.202 115.88 197.458 115.059 187.952 116.617C178.446 118.176 169.474 122.065 161.838 127.938C133.755 149.383 127.877 192.036 148.702 223.191C169.527 254.347 209.183 262.216 237.277 240.769C253.519 228.364 262.333 208.896 262.832 188.58C260.357 201.228 253.401 212.558 243.242 220.488C220.341 237.932 188.045 231.513 171.046 206.131Z" fill="white"/>
<path d="M239.467 112.499L262.245 121.858L276.751 101.619L276.318 127.645L299.096 137.004L276.059 143.728L275.614 169.757L261.812 147.885L238.775 154.609L253.281 134.369L239.467 112.499Z" fill="white"/>
</g>
</svg>
