<?xml version="1.0" encoding="utf-8"?>
<!-- Generator: Adobe Illustrator 24.3.0, SVG Export Plug-In . SVG Version: 6.00 Build 0)  -->
<svg version="1.1" id="Слой_1" xmlns="http://www.w3.org/2000/svg" xmlns:xlink="http://www.w3.org/1999/xlink" x="0px" y="0px"
	 viewBox="0 0 1412 516" style="enable-background:new 0 0 1412 516;" xml:space="preserve">
<style type="text/css">
	.st0{fill:#192942;}
	.st1{fill:#E41429;}
	.st2{opacity:0.94;}
	.st3{fill:#FFFFFF;}
</style>
<path class="st0" d="M488.9,132.1h25.2v49.5h8.5l35.1-49.5h27.2l-41.6,55.6c2,1.9,4.1,4.4,6.3,7.4c2.3,3,4.8,6.7,7.6,11.2
	c2.6,4.4,4.9,8.2,6.8,11.3c1.9,3.1,3.7,5.7,5.4,7.7s3.4,3.5,5,4.5c1.8,1,3.8,1.4,5.9,1.4h1.8L582,252h-10.4c-3.6,0-6.8-0.4-9.5-1.3
	c-2.6-0.8-5.2-2.2-7.6-4.1c-2.4-2-4.8-4.7-7.2-7.9c-2.3-3.4-4.9-7.4-7.7-12.2c-2.4-4-4.5-7.4-6.3-10.4c-1.8-3.1-3.5-5.8-5-7.9
	s-3.1-3.8-4.7-4.9c-1.4-1.1-3.1-1.6-4.9-1.6h-4.5V252h-25.2V132.1z"/>
<path class="st0" d="M603.7,132.1h40c5.5,0,10.8,0.5,15.8,1.4c5,1,9.4,2.6,13.1,5c3.8,2.3,6.8,5.3,9,9.2c2.3,3.8,3.4,8.6,3.4,14.2
	c0,7.8-1.9,13.9-5.8,18.4c-3.8,4.4-9,7.5-15.5,9.2v0.4c3.6,0.6,7,1.6,10.1,3.1c3.2,1.4,6.1,3.4,8.5,5.8c2.4,2.4,4.3,5.3,5.6,8.6
	c1.4,3.2,2.2,7,2.2,11.3c0,6.1-1.2,11.3-3.6,15.7c-2.3,4.2-5.5,7.6-9.7,10.3c-4.1,2.5-9,4.4-14.8,5.6S650,252,643.1,252h-39.4V132.1
	z M642.1,232.6c7.3,0,12.8-1.2,16.6-3.6c3.8-2.5,5.8-6.7,5.8-12.4c0-5.6-1.7-9.8-5-12.6c-3.4-2.9-8.8-4.3-16.2-4.3h-14.4v32.9H642.1
	z M640.4,181.4c6.8,0,11.8-1.2,14.9-3.6c3.1-2.5,4.7-6.5,4.7-11.9c0-9.6-6.4-14.4-19.1-14.4h-12.2v29.9H640.4z"/>
<path class="st0" d="M770.9,209.2l-10.3-28.6c-1.9-5.2-3.4-9.5-4.3-13.1c-0.8-3.7-1.6-6.2-2.2-7.6h-0.4c-0.5,1.4-1.3,4-2.3,7.7
	c-1,3.7-2.3,8-4,13l-10.3,28.6H770.9z M742.5,132.1H767L814,252h-27.7l-8.1-22.5h-47.9l-7.9,22.5h-25.6L742.5,132.1z"/>
<path class="st0" d="M831,132.1h39.4c6.5,0,12.5,0.8,18.2,2.3c5.6,1.4,10.5,3.7,14.6,6.8c4.1,3.1,7.3,7.1,9.5,11.9
	c2.4,4.7,3.6,10.3,3.6,16.7s-1.1,12.2-3.4,17.1s-5.6,9.1-9.9,12.4c-4.2,3.2-9.3,5.7-15.3,7.4c-6,1.7-12.7,2.5-20.2,2.5h-11V252H831
	V132.1z M867.9,190.1c8,0,13.9-1.6,17.5-4.9c3.6-3.2,5.4-8.2,5.4-14.9c0-6.1-1.7-10.7-5.2-13.9c-3.5-3.2-9.2-4.9-17.1-4.9h-11.9
	v38.5H867.9z"/>
<path class="st0" d="M956.5,153h-33.1v-20.9h91.6V153H982v99h-25.6V153z"/>
<path class="st0" d="M1032.5,132.1h23.6v64.1c0,4.6-0.1,8.6-0.4,12.2c-0.1,3.6-0.2,5.8-0.4,6.5h0.4c0.6-1,2-3.2,4.1-6.8
	c2.2-3.6,5-8,8.5-13.3l42.7-62.6h25.6V252h-23.6v-69.3c0-3.8,0.1-7.2,0.2-10.1c0.2-3,0.4-4.9,0.4-5.8h-0.4c-0.6,1.2-1.9,3.4-3.8,6.5
	c-1.9,3.1-4.5,7-7.7,11.5l-45.9,67.1h-23.2V132.1z"/>
<path class="st0" d="M1166,132.1h39.4c6.5,0,12.5,0.8,18.2,2.3c5.6,1.4,10.5,3.7,14.6,6.8c4.1,3.1,7.3,7.1,9.5,11.9
	c2.4,4.7,3.6,10.3,3.6,16.7s-1.1,12.2-3.4,17.1c-2.3,4.9-5.6,9.1-9.9,12.4c-4.2,3.2-9.3,5.7-15.3,7.4c-6,1.7-12.7,2.5-20.2,2.5h-11
	V252H1166V132.1z M1202.9,190.1c8,0,13.9-1.6,17.5-4.9s5.4-8.2,5.4-14.9c0-6.1-1.7-10.7-5.2-13.9c-3.5-3.2-9.2-4.9-17.1-4.9h-11.9
	v38.5H1202.9z"/>
<path class="st0" d="M1272.8,132.1h25.4v42.7h15.7c6.5,0,12.5,0.8,18,2.3c5.6,1.4,10.5,3.7,14.6,6.8c4.1,3.1,7.3,7.1,9.5,11.9
	c2.4,4.7,3.6,10.2,3.6,16.6c0,6.5-1.1,12.2-3.4,17.3c-2.3,4.9-5.5,9.1-9.7,12.4c-4.2,3.2-9.3,5.7-15.3,7.4c-6,1.7-12.7,2.5-20.2,2.5
	h-38.2V132.1z M1311.1,232.7c8,0,13.9-1.6,17.5-4.9c3.7-3.4,5.6-8.3,5.6-14.9c0-6.1-1.7-10.7-5.2-13.9c-3.5-3.2-9.2-4.9-17.1-4.9
	h-13.7v38.5H1311.1z M1378.4,132.1h25.4V252h-25.4V132.1z"/>
<path class="st0" d="M488.9,318.1h40c5.5,0,10.8,0.5,15.8,1.4c5,1,9.4,2.6,13.1,5c3.8,2.3,6.8,5.3,9,9.2c2.3,3.8,3.4,8.6,3.4,14.2
	c0,7.8-1.9,13.9-5.8,18.4c-3.8,4.4-9,7.5-15.5,9.2v0.4c3.6,0.6,7,1.6,10.1,3.1c3.2,1.4,6.1,3.4,8.5,5.8s4.3,5.3,5.6,8.6
	c1.4,3.2,2.2,7,2.2,11.3c0,6.1-1.2,11.3-3.6,15.7c-2.3,4.2-5.5,7.6-9.7,10.3c-4.1,2.5-9,4.4-14.8,5.6c-5.8,1.2-12.1,1.8-18.9,1.8
	h-39.4V318.1z M527.3,418.6c7.3,0,12.8-1.2,16.6-3.6c3.8-2.5,5.8-6.7,5.8-12.4c0-5.6-1.7-9.8-5-12.6c-3.4-2.9-8.8-4.3-16.2-4.3H514
	v32.9H527.3z M525.7,367.4c6.8,0,11.8-1.2,14.9-3.6c3.1-2.5,4.7-6.5,4.7-11.9c0-9.6-6.4-14.4-19.1-14.4H514v29.9H525.7z"/>
<path class="st0" d="M652.9,339h-33.1v-20.9h91.6V339h-32.9v99h-25.6V339z"/>
<path class="st0" d="M738.2,438.5c-2.9,0-5.4-0.2-7.6-0.5c-2-0.4-3.5-0.7-4.5-1.1l3.4-18.9c1.6,0.6,3.9,0.9,7,0.9
	c4.6,0,8.2-1.4,11-4.1s5.2-6.5,7.4-11.3l1.8-4.5l-36.4-80.8h24.5l24.3,55.6l24.3-55.6H818l-40.5,90c-2.4,5.4-4.9,10-7.4,13.9
	c-2.5,3.8-5.3,7-8.5,9.5c-3,2.4-6.4,4.2-10.3,5.4C747.7,438,743.3,438.5,738.2,438.5z"/>
<path class="st0" d="M835,318.1h39.4c6.5,0,12.5,0.8,18.2,2.3c5.6,1.4,10.5,3.7,14.6,6.8c4.1,3.1,7.3,7.1,9.5,11.9
	c2.4,4.7,3.6,10.3,3.6,16.7c0,6.5-1.1,12.2-3.4,17.1c-2.3,4.9-5.6,9.1-9.9,12.4c-4.2,3.2-9.3,5.7-15.3,7.4s-12.7,2.5-20.2,2.5h-11
	V438H835V318.1z M871.9,376.1c8,0,13.9-1.6,17.5-4.9c3.6-3.2,5.4-8.2,5.4-14.9c0-6.1-1.7-10.7-5.2-13.9c-3.5-3.2-9.2-4.9-17.1-4.9
	h-11.9v38.5H871.9z"/>
<path class="st0" d="M1031.8,438h-90V318.1H967v99h48.4v-99h25.6v99h12.2l-3.4,47.2h-16L1031.8,438z"/>
<path class="st0" d="M1075.9,318.1h23.6v64.1c0,4.6-0.1,8.6-0.4,12.2c-0.1,3.6-0.2,5.8-0.4,6.5h0.4c0.6-1,2-3.2,4.1-6.8
	c2.2-3.6,5-8,8.5-13.3l42.7-62.6h25.6V438h-23.6v-69.3c0-3.8,0.1-7.2,0.2-10.1c0.2-3,0.4-4.9,0.4-5.8h-0.4c-0.6,1.2-1.9,3.4-3.8,6.5
	c-1.9,3.1-4.5,7-7.7,11.5l-45.9,67.1h-23.2V318.1z"/>
<path class="st0" d="M1209.8,318.1h23.6v64.1c0,4.6-0.1,8.6-0.4,12.2c-0.1,3.6-0.2,5.8-0.4,6.5h0.4c0.6-1,2-3.2,4.1-6.8
	c2.2-3.6,5-8,8.5-13.3l42.7-62.6h25.6V438h-23.6v-69.3c0-3.8,0.1-7.2,0.2-10.1c0.2-3,0.4-4.9,0.4-5.8h-0.4c-0.6,1.2-1.9,3.4-3.8,6.5
	c-1.9,3.1-4.5,7-7.7,11.5L1233,438h-23.2V318.1z"/>
<path class="st0" d="M250,516V398h150L250,516z"/>
<path class="st1" d="M399,131L200,0L0,131l0,74.8C90.8,282.8,201,324.2,314.1,324c28.8,0,57.5-2.7,85.9-8L399,131z"/>
<path class="st0" d="M314.1,350.7C201,350.9,90.8,310.3,0,235v203h400v-95.1C371.6,348.1,342.9,350.7,314.1,350.7z"/>
<g class="st2">
	<path class="st3" d="M171,206.1c-17-25.4-12.2-60.2,10.7-77.6c9.8-7.6,22.2-11,34.6-9.5c-9.1-3.1-18.9-3.9-28.4-2.4
		c-9.5,1.6-18.5,5.4-26.1,11.3c-28.1,21.4-34,64.1-13.1,95.3c20.8,31.2,60.5,39,88.6,17.6c16.2-12.4,25.1-31.9,25.6-52.2
		c-2.5,12.6-9.4,24-19.6,31.9C220.3,237.9,188,231.5,171,206.1z"/>
	<path class="st3" d="M239.5,112.5l22.8,9.4l14.5-20.2l-0.4,26l22.8,9.4l-23,6.7l-0.4,26l-13.8-21.9l-23,6.7l14.5-20.2L239.5,112.5z
		"/>
</g>
</svg>
